<svg width="1090" height="157" viewBox="0 0 1090 157" fill="none" xmlns="http://www.w3.org/2000/svg">
<path d="M17.4694 105.5C17.1758 105.5 16.6864 105.55 16.0013 105.648C15.4141 105.746 14.7291 105.844 13.9461 105.942C13.2611 106.04 12.576 106.138 11.8909 106.236C11.2058 106.334 10.6676 106.383 10.2761 106.383C7.5358 106.383 5.13805 105.255 3.08283 102.999C1.02761 100.645 0 97.5548 0 93.7291C0 91.1787 0.831874 88.7263 2.49562 86.3721C4.15937 84.0178 6.75286 82.0559 10.2761 80.4864C11.3526 79.9959 12.1845 79.4564 12.7717 78.8679C13.4568 78.1812 13.7993 77.2493 13.7993 76.0722C13.7993 72.9331 13.7015 69.5979 13.5057 66.0665C13.4079 62.437 13.2121 58.219 12.9185 53.4124C12.8207 52.4314 12.4781 51.4995 11.8909 50.6167C11.4016 49.7338 10.8144 48.7529 10.1293 47.6739C9.54209 46.4967 9.00382 45.2215 8.51448 43.8482C8.02514 42.4749 7.78047 40.7582 7.78047 38.6982C7.78047 36.8344 8.02514 34.7254 8.51448 32.3711C9.10168 29.9188 10.2272 27.6626 11.8909 25.6026C13.6525 23.4445 16.0503 21.6789 19.0842 20.3055C22.2159 18.8341 26.2774 18.0984 31.2687 18.0984C33.3239 18.0984 35.0366 18.2946 36.4067 18.687C37.7769 19.0793 38.9513 19.5698 39.93 20.1584C41.0065 20.6489 41.9363 21.0903 42.7192 21.4827C43.6 21.875 44.4808 22.0712 45.3616 22.0712C46.9275 22.0712 50.0593 21.7769 54.7569 21.1884C59.4545 20.5998 65.0819 19.766 71.6391 18.687C78.2941 17.6079 85.5852 16.3818 93.5125 15.0084C101.538 13.6351 109.661 12.1637 117.881 10.5942C126.102 8.92659 134.128 7.25898 141.957 5.59138C149.786 3.92377 156.882 2.30522 163.243 0.735708C165.2 0.245236 166.913 0 168.381 0C170.436 0 172.051 0.490472 173.226 1.47142C174.498 2.35426 175.428 3.48235 176.015 4.85567C176.602 6.22899 176.945 7.7985 177.042 9.5642C177.238 11.2318 177.336 12.8013 177.336 14.2727C177.336 16.8232 176.455 19.2265 174.694 21.4827C173.03 23.6407 170.241 25.3574 166.326 26.6326C156.637 29.4774 146.85 31.9788 136.966 34.1368C127.179 36.1968 117.294 38.1097 107.312 39.8754C97.3293 41.543 87.2979 43.0634 77.2175 44.4367C67.1372 45.8101 57.1057 47.1834 47.1232 48.5567C45.7531 48.7529 44.7255 49.2924 44.0404 50.1753C43.3553 50.96 43.0128 52.039 43.0128 53.4124V59.4452C43.0128 61.1128 43.0617 62.8294 43.1596 64.5951C43.2575 66.3608 43.4532 67.9794 43.7468 69.4508C44.1383 70.9222 44.6276 72.1484 45.2148 73.1293C45.802 74.0122 46.585 74.4536 47.5636 74.4536C49.9125 74.4536 53.5336 73.9631 58.4269 72.9822C63.4182 72.0012 68.9966 70.8241 75.1623 69.4508C81.4258 67.9794 87.934 66.4099 94.6869 64.7423C101.538 62.9766 107.997 61.4071 114.065 60.0337C120.132 58.5623 125.466 57.3361 130.066 56.3552C134.666 55.3743 137.895 54.8838 139.755 54.8838C142.495 54.8838 144.55 55.9138 145.921 57.9738C147.389 59.9356 148.367 62.437 148.857 65.478C148.857 65.9684 148.906 66.4099 149.003 66.8022C149.101 67.1946 149.15 67.6361 149.15 68.1265C149.15 70.9713 148.269 73.6198 146.508 76.0722C144.844 78.4264 141.81 80.1921 137.406 81.3693C136.232 81.7616 133.883 82.3992 130.36 83.2821C126.836 84.0669 122.677 85.0478 117.881 86.2249C113.086 87.304 107.899 88.4811 102.321 89.7563C96.7421 91.0316 91.2615 92.3068 85.8788 93.582C80.4961 94.7591 75.4559 95.9363 70.7583 97.1134C66.1585 98.1924 62.3906 99.0753 59.4545 99.7619C56.8121 100.449 55.1973 100.988 54.6101 101.381C54.1208 101.773 53.8761 102.263 53.8761 102.852C54.0718 105.01 55.1484 107.021 57.1057 108.885C59.1609 110.749 61.7055 112.465 64.7394 114.035C67.8712 115.604 71.3455 117.027 75.1623 118.302C79.077 119.577 83.0896 120.656 87.2 121.539C91.4083 122.324 95.5187 122.961 99.5313 123.452C103.544 123.942 107.263 124.187 110.688 124.187C112.156 124.187 114.26 124.187 117.001 124.187C119.741 124.187 122.726 124.138 125.956 124.04C129.283 123.844 132.659 123.599 136.085 123.305C139.608 123.01 142.74 122.618 145.48 122.127C148.318 121.539 150.618 120.852 152.38 120.067C154.239 119.185 155.169 118.155 155.169 116.978C155.169 115.898 154.778 114.77 153.995 113.593C153.31 112.416 152.967 111.141 152.967 109.768C152.967 107.806 153.505 105.893 154.582 104.029C155.658 102.067 157.029 100.351 158.692 98.8791C160.454 97.3096 162.411 96.0834 164.564 95.2006C166.815 94.2196 169.066 93.7291 171.317 93.7291C174.155 93.7291 176.749 94.3177 179.098 95.4948C181.446 96.5739 183.453 98.0453 185.117 99.9091C186.878 101.675 188.199 103.735 189.08 106.089C190.059 108.443 190.548 110.847 190.548 113.299C190.548 119.773 188.15 125.365 183.355 130.073C178.657 134.782 172.492 138.656 164.858 141.697C157.224 144.836 148.612 147.142 139.021 148.613C129.43 150.182 119.79 150.967 110.101 150.967C98.7484 150.967 88.3744 150.182 78.9791 148.613C69.5838 147.142 61.1672 144.738 53.7293 141.403C46.2914 138.068 39.881 133.752 34.4983 128.455C29.1156 123.059 24.7116 116.536 21.2862 108.885C20.1118 106.629 18.8395 105.5 17.4694 105.5Z" fill="black"/>
<path d="M195.98 22.9541C195.98 21.4827 196.616 20.0603 197.888 18.687C199.16 17.2156 200.824 15.9403 202.879 14.8613C204.935 13.6842 207.235 12.7523 209.779 12.0656C212.422 11.2808 215.064 10.8885 217.706 10.8885C219.174 10.8885 220.398 11.2808 221.376 12.0656C222.453 12.8504 223.383 14.3708 224.166 16.627C224.949 18.7851 225.634 21.875 226.221 25.8969C226.906 29.8207 227.542 34.9706 228.129 41.3468C228.521 43.3087 228.863 44.8291 229.157 45.9082C229.548 46.8891 230.038 47.3796 230.625 47.3796C231.506 47.3796 232.387 45.8591 233.267 42.8182C240.412 22.1203 250.737 11.7713 264.242 11.7713C270.506 11.7713 276.182 13.7332 281.271 17.657C286.458 21.5808 291.254 28.0059 295.658 36.9325C300.16 45.761 304.417 57.4342 308.43 71.9522C312.442 86.3721 316.455 104.176 320.467 125.365C320.663 126.444 320.81 127.425 320.908 128.307C321.006 129.19 321.055 130.024 321.055 130.809C321.055 133.065 320.516 135.027 319.44 136.694C318.461 138.264 317.14 139.588 315.476 140.667C313.812 141.648 311.953 142.384 309.898 142.874C307.842 143.463 305.787 143.757 303.732 143.757C299.622 143.757 296.637 143.316 294.777 142.433C293.015 141.55 291.89 139.883 291.401 137.43C288.563 122.52 285.773 109.277 283.033 97.702C280.391 86.1268 277.748 76.4155 275.106 68.5679C272.561 60.6223 270.017 54.5895 267.472 50.4695C264.928 46.3496 262.383 44.2896 259.838 44.2896C257.294 44.2896 254.896 45.9082 252.645 49.1453C250.492 52.2843 248.388 57.238 246.333 64.0066C244.277 70.7751 242.271 79.3583 240.314 89.7563C238.454 100.154 236.644 112.563 234.882 126.983C234.393 130.907 232.435 134.046 229.01 136.4C225.585 138.754 221.23 139.932 215.945 139.932C212.422 139.932 209.73 139.196 207.871 137.724C206.011 136.253 204.984 134.242 204.788 131.692C203.907 111.288 202.928 94.5139 201.852 81.3693C200.873 68.1265 199.943 57.5323 199.063 49.5867C198.182 41.543 197.448 35.5592 196.861 31.6354C196.273 27.7117 195.98 24.8179 195.98 22.9541Z" fill="black"/>
<path d="M338.964 22.9541C338.964 21.4827 339.6 20.0603 340.873 18.687C342.145 17.2156 343.809 15.9403 345.864 14.8613C347.919 13.6842 350.219 12.7523 352.764 12.0656C355.406 11.2808 358.048 10.8885 360.691 10.8885C362.159 10.8885 363.382 11.2808 364.361 12.0656C365.437 12.8504 366.367 14.3708 367.15 16.627C367.933 18.7851 368.618 21.875 369.205 25.8969C369.89 29.8207 370.527 34.9706 371.114 41.3468C371.505 43.3087 371.848 44.8291 372.141 45.9082C372.533 46.8891 373.022 47.3796 373.609 47.3796C374.49 47.3796 375.371 45.8591 376.252 42.8182C383.396 22.1203 393.721 11.7713 407.227 11.7713C413.49 11.7713 419.167 13.7332 424.256 17.657C429.443 21.5808 434.238 28.0059 438.642 36.9325C443.144 45.761 447.402 57.4342 451.414 71.9522C455.427 86.3721 459.439 104.176 463.452 125.365C463.648 126.444 463.794 127.425 463.892 128.307C463.99 129.19 464.039 130.024 464.039 130.809C464.039 133.065 463.501 135.027 462.424 136.694C461.446 138.264 460.124 139.588 458.461 140.667C456.797 141.648 454.937 142.384 452.882 142.874C450.827 143.463 448.772 143.757 446.717 143.757C442.606 143.757 439.621 143.316 437.762 142.433C436 141.55 434.875 139.883 434.385 137.43C431.547 122.52 428.758 109.277 426.018 97.702C423.375 86.1268 420.733 76.4155 418.09 68.5679C415.546 60.6223 413.001 54.5895 410.457 50.4695C407.912 46.3496 405.367 44.2896 402.823 44.2896C400.278 44.2896 397.881 45.9082 395.63 49.1453C393.477 52.2843 391.372 57.238 389.317 64.0066C387.262 70.7751 385.256 79.3583 383.298 89.7563C381.439 100.154 379.628 112.563 377.867 126.983C377.377 130.907 375.42 134.046 371.995 136.4C368.569 138.754 364.214 139.932 358.929 139.932C355.406 139.932 352.715 139.196 350.855 137.724C348.996 136.253 347.968 134.242 347.772 131.692C346.892 111.288 345.913 94.5139 344.836 81.3693C343.858 68.1265 342.928 57.5323 342.047 49.5867C341.166 41.543 340.432 35.5592 339.845 31.6354C339.258 27.7117 338.964 24.8179 338.964 22.9541Z" fill="black"/>
<path d="M483.27 90.1977C480.53 90.1977 478.279 89.0697 476.517 86.8135C474.756 84.4592 473.875 81.075 473.875 76.6607C473.875 72.737 475.636 69.7941 479.16 67.8322C482.683 65.8704 488.653 64.497 497.069 63.7123C499.81 63.418 503.382 63.0256 507.786 62.5351C512.288 61.9466 516.839 61.4071 521.438 60.9166C526.136 60.328 530.54 59.8375 534.651 59.4452C538.859 59.0528 542.137 58.8566 544.486 58.8566C548.107 58.8566 550.897 59.9356 552.854 62.0937C554.909 64.2518 555.937 68.0775 555.937 73.5708C555.937 79.2602 550.309 82.6935 539.055 83.8707C537.587 84.0669 535.385 84.3611 532.448 84.7535C529.61 85.0478 526.381 85.4402 522.76 85.9306C519.139 86.4211 515.322 86.9116 511.309 87.4021C507.394 87.8925 503.627 88.334 500.005 88.7263C496.384 89.1187 493.057 89.462 490.023 89.7563C487.087 90.0506 484.836 90.1977 483.27 90.1977Z" fill="black"/>
<path d="M667.359 78.7207C667.359 63.2218 669.218 51.3033 672.937 42.9653C676.656 34.6273 681.99 30.4583 688.939 30.4583C699.998 30.4583 705.527 40.0225 705.527 59.1509C705.527 65.9194 705.136 72.2955 704.353 78.2793C703.668 84.263 702.64 90.0506 701.27 95.642C701.074 96.4267 700.928 97.1624 700.83 97.8491C700.732 98.5358 700.683 99.1734 700.683 99.7619C700.683 101.822 701.074 103.637 701.857 105.206C706.751 117.664 715.803 123.893 729.016 123.893C733.713 123.893 738.117 122.863 742.228 120.803C746.338 118.743 749.91 115.948 752.944 112.416C755.978 108.787 758.327 104.569 759.991 99.7619C761.752 94.9553 762.633 89.7563 762.633 84.1649C762.633 77.8869 761.899 72.6879 760.431 68.5679C758.963 64.3499 757.348 60.7694 755.587 57.8266C753.825 54.7857 752.21 52.039 750.742 49.5867C749.274 47.0362 748.54 44.1915 748.54 41.0525C748.54 39.5811 749.176 38.0606 750.449 36.4911C751.819 34.8235 753.482 33.303 755.44 31.9297C757.495 30.5564 759.697 29.4283 762.046 28.5455C764.493 27.6626 766.792 27.2212 768.945 27.2212C771.784 27.2212 774.573 28.7907 777.313 31.9297C780.151 35.0687 782.647 39.1887 784.8 44.2896C787.051 49.2924 788.813 55.0309 790.085 61.5052C791.455 67.9794 792.14 74.5027 792.14 81.075C792.14 90.5901 790.378 99.5658 786.855 108.002C783.332 116.438 778.536 123.844 772.469 130.22C766.401 136.596 759.306 141.648 751.183 145.376C743.157 149.103 734.643 150.967 725.639 150.967C718.005 150.967 711.204 149.594 705.234 146.847C699.362 144.199 693.93 139.49 688.939 132.722C688.156 131.446 687.373 130.564 686.59 130.073C685.807 129.583 685.024 129.337 684.241 129.337C683.262 129.337 682.382 129.583 681.599 130.073C680.816 130.564 679.984 131.446 679.103 132.722C672.448 141.452 665.304 147.681 657.67 151.409C650.134 155.136 641.816 157 632.714 157C622.633 157 613.532 154.204 605.409 148.613C597.384 143.12 590.533 135.272 584.857 125.07C579.18 114.868 574.825 102.509 571.791 87.9906C568.757 73.3746 567.24 57.0419 567.24 38.9925C567.24 31.6354 567.534 25.5536 568.121 20.747C568.708 15.8422 569.785 12.0166 571.351 9.26992C572.917 6.42518 574.972 4.46329 577.517 3.38425C580.061 2.20712 583.34 1.61856 587.352 1.61856C591.561 1.61856 594.594 2.45236 596.454 4.11996C598.411 5.68947 599.39 8.43611 599.39 12.3599C599.39 15.4008 599.096 18.8341 598.509 22.6598C597.922 26.3874 597.628 29.6245 597.628 32.3711C597.628 46.5948 598.607 59.6904 600.564 71.6579C602.62 83.6254 605.409 93.9253 608.932 102.558C612.553 111.19 616.81 117.909 621.704 122.716C626.695 127.523 632.176 129.926 638.145 129.926C651.455 129.926 661.291 123.108 667.653 109.473C668.24 108.394 668.631 107.413 668.827 106.53C669.023 105.55 669.121 104.52 669.121 103.44C669.121 102.852 669.121 102.263 669.121 101.675C669.121 100.988 669.023 100.252 668.827 99.4677C668.338 95.7401 667.946 92.2087 667.653 88.8735C667.457 85.4402 667.359 82.0559 667.359 78.7207Z" fill="black"/>
<path d="M932.042 109.473C934.88 107.021 937.669 105.795 940.409 105.795C941.975 105.795 943.394 106.187 944.667 106.972C945.939 107.757 947.358 108.983 948.924 110.65C950.392 112.907 951.42 114.77 952.007 116.242C952.692 117.615 953.034 118.988 953.034 120.362C953.034 123.305 951.566 126.1 948.63 128.749C943.933 132.673 938.844 136.204 933.363 139.343C927.882 142.384 922.157 144.983 916.187 147.142C910.217 149.3 904.052 150.918 897.69 151.997C891.329 153.174 885.016 153.763 878.753 153.763C870.826 153.763 863.388 152.733 856.439 150.673C849.49 148.711 843.276 145.866 837.795 142.139C832.413 138.411 827.862 133.948 824.143 128.749C820.424 123.452 817.781 117.517 816.216 110.945C815.335 108.198 814.503 106.432 813.72 105.648C813.035 104.765 811.86 104.323 810.197 104.323C806.576 104.323 803.786 103.44 801.829 101.675C799.872 99.9091 798.893 97.3586 798.893 94.0234C798.893 92.6501 798.991 91.7673 799.187 91.3749L799.48 88.4321C799.969 84.9007 800.899 82.3502 802.269 80.7807C803.737 79.2112 805.988 78.4264 809.022 78.4264H811.224C815.335 78.4264 818.222 76.5136 819.886 72.6879C822.919 65.9194 826.785 59.7395 831.483 54.1481C836.18 48.5567 841.465 43.7991 847.337 39.8754C853.209 35.8535 859.473 32.7635 866.128 30.6054C872.881 28.3493 879.732 27.2212 886.68 27.2212C893.922 27.2212 900.675 28.3002 906.939 30.4583C913.3 32.5183 918.83 35.4121 923.527 39.1396C928.225 42.8672 931.895 47.2324 934.537 52.2352C937.278 57.238 938.648 62.6332 938.648 68.4208C938.648 72.4427 937.865 76.1212 936.299 79.4564C934.733 82.7916 932.482 85.7345 929.546 88.2849C926.61 90.7373 923.038 92.7482 918.83 94.3177C914.719 95.8872 910.022 96.9172 904.737 97.4077L853.797 102.558C851.839 102.558 850.224 103.048 848.952 104.029C847.778 105.01 847.191 106.334 847.191 108.002C847.191 110.552 848.12 113.005 849.98 115.359C851.937 117.713 854.482 119.822 857.613 121.686C860.843 123.452 864.513 124.874 868.624 125.953C872.832 127.032 877.138 127.572 881.542 127.572C885.75 127.572 890.057 127.179 894.461 126.395C898.963 125.512 903.367 124.286 907.673 122.716C912.077 121.147 916.334 119.283 920.444 117.125C924.555 114.868 928.421 112.318 932.042 109.473ZM899.305 71.5108C900.773 71.2165 902.045 70.5298 903.122 69.4508C904.198 68.2737 904.737 66.8513 904.737 65.1837C904.737 63.7123 904.198 62.339 903.122 61.0637C902.045 59.7885 900.577 58.6604 898.718 57.6795C896.858 56.6004 894.705 55.7666 892.259 55.1781C889.812 54.5895 887.218 54.2952 884.478 54.2952C880.466 54.2952 876.355 54.8838 872.147 56.0609C867.939 57.238 864.122 58.8076 860.696 60.7694C857.271 62.6332 854.482 64.7423 852.329 67.0965C850.176 69.3527 849.099 71.6089 849.099 73.865C849.099 76.1212 850.469 77.2493 853.209 77.2493C854.873 77.2493 857.565 77.0531 861.284 76.6607C865.002 76.2684 869.113 75.8269 873.615 75.3365C878.117 74.7479 882.668 74.1103 887.267 73.4236C891.867 72.737 895.88 72.0993 899.305 71.5108Z" fill="black"/>
<path d="M964.925 22.9541C964.925 21.4827 965.561 20.0603 966.834 18.687C968.106 17.2156 969.77 15.9403 971.825 14.8613C973.88 13.6842 976.18 12.7523 978.725 12.0656C981.367 11.2808 984.009 10.8885 986.652 10.8885C988.12 10.8885 989.343 11.2808 990.322 12.0656C991.398 12.8504 992.328 14.3708 993.111 16.627C993.894 18.7851 994.579 21.875 995.166 25.8969C995.851 29.8207 996.488 34.9706 997.075 41.3468C997.466 43.3087 997.809 44.8291 998.102 45.9082C998.494 46.8891 998.983 47.3796 999.57 47.3796C1000.45 47.3796 1001.33 45.8591 1002.21 42.8182C1009.36 22.1203 1019.68 11.7713 1033.19 11.7713C1039.45 11.7713 1045.13 13.7332 1050.22 17.657C1055.4 21.5808 1060.2 28.0059 1064.6 36.9325C1069.11 45.761 1073.36 57.4342 1077.38 71.9522C1081.39 86.3721 1085.4 104.176 1089.41 125.365C1089.61 126.444 1089.76 127.425 1089.85 128.307C1089.95 129.19 1090 130.024 1090 130.809C1090 133.065 1089.46 135.027 1088.39 136.694C1087.41 138.264 1086.09 139.588 1084.42 140.667C1082.76 141.648 1080.9 142.384 1078.84 142.874C1076.79 143.463 1074.73 143.757 1072.68 143.757C1068.57 143.757 1065.58 143.316 1063.72 142.433C1061.96 141.55 1060.84 139.883 1060.35 137.43C1057.51 122.52 1054.72 109.277 1051.98 97.702C1049.34 86.1268 1046.69 76.4155 1044.05 68.5679C1041.51 60.6223 1038.96 54.5895 1036.42 50.4695C1033.87 46.3496 1031.33 44.2896 1028.78 44.2896C1026.24 44.2896 1023.84 45.9082 1021.59 49.1453C1019.44 52.2843 1017.33 57.238 1015.28 64.0066C1013.22 70.7751 1011.22 79.3583 1009.26 89.7563C1007.4 100.154 1005.59 112.563 1003.83 126.983C1003.34 130.907 1001.38 134.046 997.956 136.4C994.53 138.754 990.175 139.932 984.89 139.932C981.367 139.932 978.676 139.196 976.816 137.724C974.957 136.253 973.929 134.242 973.733 131.692C972.853 111.288 971.874 94.5139 970.797 81.3693C969.819 68.1265 968.889 57.5323 968.008 49.5867C967.127 41.543 966.393 35.5592 965.806 31.6354C965.219 27.7117 964.925 24.8179 964.925 22.9541Z" fill="black"/>
</svg>
