<svg width="413" height="301" viewBox="0 0 413 301" fill="none" xmlns="http://www.w3.org/2000/svg">
<path d="M340.025 154.916C342.705 151.639 346.225 145.77 350.515 146.486L352.075 149.637C345.995 160.778 340.945 172.24 335.095 183.518C331.275 190.879 327.105 196.441 322.965 203.309C324.515 205.152 324.555 205.214 326.495 206.633C322.305 212.927 325.305 213.328 323.025 218.506C320.885 217.208 319.055 215.334 316.795 213.804C304.105 223.933 294.265 249.437 272.805 253.313C271.365 252.748 268.075 251.497 267.175 250.462C260.675 242.934 265.975 217.229 271.715 212.112L273.825 212.606C278.245 219.547 272.375 227.265 273.745 235.993L275.825 236.445C285.205 233.305 302.085 213.082 306.985 204.968C300.975 201.262 295.035 197.297 289.075 193.554C286.095 191.68 280.345 193.945 277.615 191.106C275.615 174.22 290.915 179.568 298.695 186.48C301.655 189.106 309.885 194.124 313.255 195.798C319.795 192.329 335.195 162.753 340.025 154.916Z" fill="#010101" fill-opacity="0.92549"/>
<path d="M340.025 154.916C330.435 156.35 291.555 173.82 284.225 167.762C282.625 161.988 282.855 156.612 289.475 154.705C317.595 146.617 344.895 136.408 371.175 123.517C374.465 121.907 374.975 121.448 378.005 122.679C380.675 126.033 380.855 129.609 381.705 133.928C374.645 140.739 361.255 145.996 352.075 149.637L350.515 146.486C346.225 145.77 342.705 151.639 340.025 154.916Z" fill="#010101" fill-opacity="0.929412"/>
<path d="M325.225 74.7971C331.255 70.4781 346.825 58.2741 353.245 57.6681C356.265 59.4611 355.295 58.869 356.695 63.261C352.805 60.689 354.725 60.9541 350.945 61.3161C347.245 64.4221 346.695 71.9041 346.365 76.6781C343.015 77.7831 332.985 86.5041 325.955 89.5721C323.385 90.8641 317.955 92.5351 317.215 93.8481C312.535 98.7751 296.905 105.405 289.165 110.467C287.985 109.216 287.515 108.263 286.585 106.802C287.075 103.541 287.845 100.257 285.365 97.9571C279.715 98.3091 280.595 102.621 272.495 102.18C272.665 102.034 285.395 90.516 284.655 91.321C280.475 90.313 273.875 89.5841 270.885 87.3291C269.505 84.0301 269.955 83.2621 270.675 79.7891L272.365 78.0121C278.215 79.8541 286.665 76.2321 296.495 76.8491C297.415 81.4871 296.935 82.9321 299.775 86.1381C306.685 86.4901 308.475 81.2031 318.205 79.9921C319.905 79.2811 323.255 76.2121 325.225 74.7971Z" fill="#010101" fill-opacity="0.921569"/>
<path d="M46.3151 110.579C44.3431 107.318 43.7351 106.145 44.7141 102.617C48.5451 101.486 47.9212 102.093 52.5242 103.463C54.7722 108.21 56.0582 112.566 56.5922 117.807C58.0532 132.136 58.9651 242.779 55.4641 251.361C54.7041 253.223 54.2082 252.979 52.4882 253.748C42.3462 248.871 48.8751 226.46 47.6821 218.052C45.0241 199.301 52.5261 124.803 46.3151 110.579Z" fill="#010101" fill-opacity="0.933333"/>
<path d="M46.315 110.579C37.818 113.061 11.531 143.557 2.58704 135.958C0.878036 131.381 0.073 130.076 0 125.328C4.596 120.103 24.314 111.769 27.759 108.445C38.442 98.135 50.428 86.356 59.718 74.795C69.63 71.947 64.535 56.5991 74.811 58.6601C76.75 60.9221 78.729 68.231 77.412 70.727C71.15 82.591 59.743 92.909 52.524 103.463C47.921 102.093 48.545 101.486 44.714 102.617C43.735 106.145 44.343 107.318 46.315 110.579Z" fill="#010101" fill-opacity="0.901961"/>
<path d="M346.365 76.6781C346.695 71.9041 347.245 64.4221 350.945 61.3161C354.725 60.9541 352.805 60.6891 356.695 63.2611C357.725 72.8641 352.195 84.5131 355.585 91.7971C360.155 94.7351 358.885 92.2011 363.095 92.6141C371.745 93.4641 376.835 82.2421 382.895 79.5711C393.605 74.5611 396.315 64.2221 403.745 63.7101L404.975 66.9141C406.015 73.1871 406.265 75.9481 402.205 81.0251C393.085 92.4071 377.505 106.26 362.625 108.727C343.815 111.846 344.595 88.2011 346.365 76.6781Z" fill="#010101" fill-opacity="0.929412"/>
<path d="M92.468 84.6941C96.813 72.6791 108.186 71.3781 111.801 64.7101C116.826 55.4411 140.907 42.7271 138.669 35.8351C135.083 34.9881 130.25 36.4921 126.473 37.3011C115.064 28.0091 143.919 15.3111 151.68 31.8871C160.212 50.1101 126.957 61.0171 123.482 73.2591L122.405 74.4751C117.23 74.3631 101.036 81.693 97.05 84.912L92.468 84.6941Z" fill="#010101" fill-opacity="0.913725"/>
<path d="M331.615 211.721C339.575 215.76 380.115 257.921 383.985 268.046C381.115 274.564 380.725 274.736 381.725 281.605C371.235 269.468 361.185 257.289 350.175 245.561C346.135 241.26 329.015 225.78 328.425 222.291C330.975 219.236 331.205 215.674 331.615 211.721Z" fill="#010101" fill-opacity="0.858824"/>
<path d="M337.435 0C356.785 25.788 299.845 23.043 288.105 22.427C285.985 21.77 286.135 21.748 284.155 20.687C282.355 15.965 281.565 14.727 284.305 10.304C292.885 4.76902 309.495 7.78401 320.395 5.89801C328.905 4.42601 329.435 0.903 337.435 0Z" fill="#010101" fill-opacity="0.909804"/>
<path d="M123.482 73.2591C129.682 69.4531 132.406 68.6291 139.233 66.1781L140.302 68.5261C142.683 69.0591 142.638 68.7771 144.563 70.2161L143.809 77.6141L142.635 78.5691C143.094 79.1001 143.728 79.9441 144.256 80.2981C142.254 81.4421 140.236 82.559 138.204 83.649L135.705 82.0551C133.166 82.9201 132.976 83.6681 131.139 85.7661C124.467 89.6381 103.854 98.7551 96.5389 99.7051C93.2179 98.0481 92.407 96.4801 91.876 92.9171C92.922 88.6381 93.814 88.215 97.05 84.912C101.036 81.693 117.23 74.3631 122.405 74.4751L123.482 73.2591Z" fill="#010101" fill-opacity="0.898039"/>
<path d="M118.992 223.692L120.951 223.803C127.746 214.177 132.923 189.156 143.275 182.364L145.506 182.179C150.071 190.04 126.748 244.243 119.134 249.801C111.399 251.079 111.306 241.958 110.553 236.072L113.731 238.913L115.333 238.653C119.448 234.414 115.962 228.507 118.992 223.692Z" fill="#010101" fill-opacity="0.807843"/>
<path d="M180.513 193.62L180.456 191.085C184.662 187.602 186.307 184.248 187.943 179.234C192.237 184.15 196.101 189.516 200.071 194.711C207.037 203.825 217.268 211.24 219.402 222.969L218.791 224.935C205.591 228.051 190.812 194.781 182.001 192.064L180.513 193.62Z" fill="#010101" fill-opacity="0.784314"/>
<path d="M403.705 24.3571C419.675 28.4351 408.765 57.0861 404.975 66.9141L403.745 63.7101C396.315 64.2221 393.605 74.561 382.895 79.571C385.995 71.072 402.115 50.6541 400.705 38.6051L397.815 37.1601L396.715 36.4971C398.565 31.2351 400.875 34.4231 403.705 24.3571Z" fill="#010101" fill-opacity="0.866667"/>
<path d="M111.682 169.917C112.526 174.621 112.171 176.24 115.423 179.16C119.931 177.131 118.058 176.479 120.188 172.302C119.827 188.762 119.86 207.472 118.992 223.692C115.962 228.507 119.448 234.414 115.333 238.653L113.731 238.913L110.553 236.072C108.8 227.219 111.3 182.29 111.682 169.917Z" fill="#010101" fill-opacity="0.862745"/>
<path d="M372.815 27.407C378.115 23.324 397.065 20.811 403.705 24.357C400.875 34.423 398.565 31.235 396.715 36.497L397.815 37.1601C389.075 41.0251 378.965 40.095 372.465 43.394C369.945 39.398 367.165 36.608 367.735 32.883C370.585 30.871 370.985 30.208 372.815 27.407Z" fill="#010101" fill-opacity="0.878431"/>
<path d="M176.181 181.562C170.62 173.304 141.374 144.734 143.554 136.316L145.313 135.564C156.922 138.065 170.666 164.691 180.485 168.417C178.6 173.728 178.183 175.464 177.288 181.036L176.181 181.562Z" fill="#010101" fill-opacity="0.843137"/>
<path d="M139.233 66.1781C145.498 63.3341 151.797 60.6071 158.067 57.8221C162.377 55.9071 162.216 51.082 168.115 51.92C172.486 56.568 172.93 65.6461 167.576 69.7791C161.333 74.5971 151.723 77.9741 144.256 80.2981C143.728 79.9441 143.094 79.1001 142.635 78.5691L143.809 77.6141L144.563 70.2161C142.638 68.7771 142.683 69.0591 140.302 68.5261L139.233 66.1781Z" fill="#010101" fill-opacity="0.87451"/>
<path d="M80.4741 161.673L80.7731 160.66C89.1301 153.273 98.5061 136.493 105.021 130.337L108.429 134.267L109.594 134.921C107.603 136.631 107.548 137.548 106.818 140.037C107.252 142.083 107.282 142.253 107.986 144.284C98.3991 159.993 92.4811 162.954 82.6801 175.407L82.9131 174.355C84.3251 167.702 84.1411 167.285 80.4741 161.673Z" fill="#010101" fill-opacity="0.886275"/>
<path d="M186.865 156.451C192.599 160.89 189.817 164.481 193.59 167.469C192.261 172.802 190.794 174.604 187.943 179.234C186.307 184.248 184.662 187.602 180.456 191.085L180.513 193.62C179.929 196.616 176.622 204.645 173.892 206.105C168.216 202.813 173.717 186.142 176.181 181.562L177.288 181.036C178.183 175.464 178.6 173.728 180.485 168.417C183.398 163.775 183.312 160.529 186.865 156.451Z" fill="#010101" fill-opacity="0.803922"/>
<path d="M108.429 134.267C110.211 129.594 112.723 129.791 116.823 132.144C122.287 141.539 120.285 161.204 120.188 172.302C118.058 176.479 119.931 177.131 115.423 179.16C112.171 176.24 112.526 174.621 111.682 169.917C111.542 162.058 113.258 152.08 111.254 144.871L107.986 144.284C107.282 142.253 107.252 142.083 106.818 140.037C107.548 137.548 107.603 136.631 109.594 134.921L108.429 134.267Z" fill="#010101" fill-opacity="0.956863"/>
<path d="M230.65 82.0142C232.377 82.2862 233.663 82.6781 235.352 83.1201C240.663 91.5041 261.665 101.257 253.615 113.448C242.439 109.212 224.637 95.6392 230.65 82.0142Z" fill="#010101" fill-opacity="0.937255"/>
<path d="M326.695 40.508C332.315 38.54 337.815 36.959 343.535 34.844C349.365 38.032 350.025 43.492 349.975 49.524C341.635 52.25 332.905 54.905 324.855 58.331C325.375 52.381 325.995 46.439 326.695 40.508Z" fill="#010101" fill-opacity="0.878431"/>
<path d="M186.865 156.451C192.883 148.276 193.757 135.743 205.753 131.855C216.239 135.463 197.169 161.065 193.59 167.469C189.817 164.481 192.599 160.89 186.865 156.451Z" fill="#010101" fill-opacity="0.94902"/>
<path d="M343.535 34.844C347.195 32.331 367.365 27.29 372.815 27.407C370.985 30.208 370.585 30.871 367.735 32.883C367.165 36.608 369.945 39.398 372.465 43.394C367.505 44.627 353.995 47.666 349.975 49.524C350.025 43.492 349.365 38.032 343.535 34.844Z" fill="#010101" fill-opacity="0.866667"/>
<path d="M383.985 268.046C393.595 272.8 389.905 277.46 399.745 284.748C400.825 289.969 402.015 293.355 400.915 298.539L399.345 300.206C394.305 299.234 385.695 286.451 381.725 281.605C380.725 274.736 381.115 274.564 383.985 268.046Z" fill="#010101" fill-opacity="0.870588"/>
<path d="M272.495 102.18C280.595 102.621 279.715 98.309 285.365 97.957C287.845 100.257 287.075 103.541 286.585 106.802C287.515 108.263 287.985 109.216 289.165 110.467C283.195 114.983 274.855 121.753 267.365 118.733L266.305 116.121C266.995 108.556 266.995 107.196 272.495 102.18Z" fill="#010101" fill-opacity="0.941176"/>
<path d="M319.275 43.1981C320.585 37.6201 320.465 34.5521 326.165 32.3921L327.695 33.321C328.535 36.44 327.815 37.4621 326.695 40.5081C325.995 46.4391 325.375 52.3811 324.855 58.3311C325.185 64.1971 325.295 68.9221 325.225 74.7971C323.255 76.2121 319.905 79.2811 318.205 79.9921C317.715 74.6781 318.655 68.8791 317.935 61.5521C318.655 59.6851 319.195 46.0891 319.275 43.1981Z" fill="#010101" fill-opacity="0.92549"/>
<path d="M326.235 115.394C334.435 115.257 343.855 118.404 345.715 127.352C344.305 131.978 345.615 130.336 342.395 132.985C330.215 131.627 315.345 131.208 326.235 115.394Z" fill="#010101" fill-opacity="0.952941"/>
<path d="M80.474 161.673C84.141 167.285 84.3251 167.702 82.9131 174.355L82.68 175.407C72.198 184.644 60.7411 180.387 63.0401 168.746C65.7111 165.156 73.215 164.869 80.474 161.673Z" fill="#010101" fill-opacity="0.901961"/>
<path d="M260.585 68.7251C265.805 67.2051 271.915 62.8881 277.355 61.6791C279.945 61.1051 280.965 60.8181 283.535 60.0591L285.225 61.5821C285.205 65.2861 285.105 68.4681 284.855 72.1641C279.595 76.5211 276.905 74.7251 272.365 78.0121L270.675 79.7891L267.315 78.2651C268.935 68.5791 266.495 75.9361 260.585 68.7251Z" fill="#010101" fill-opacity="0.909804"/>
<path d="M260.585 68.7251C266.495 75.9361 268.935 68.5791 267.315 78.2651C263.095 81.4211 247.042 87.1691 242.434 82.2111C241.949 78.8861 242.217 78.7251 243.135 75.5781C248.31 72.3431 254.595 71.0101 260.585 68.7251Z" fill="#010101" fill-opacity="0.941176"/>
<path d="M283.535 60.0591L283.815 59.1641C289.965 55.5931 293.855 54.8102 300.155 52.0142C301.615 56.3772 303.995 62.2001 302.805 66.6141C296.985 68.9681 290.985 70.8251 284.855 72.1641C285.105 68.4681 285.205 65.2862 285.225 61.5822L283.535 60.0591Z" fill="#010101" fill-opacity="0.858824"/>
<path d="M105.021 130.337C107.23 128.302 115.686 112.294 121.011 106.581C122.284 110.537 122.332 113.216 124.957 115.579C124.078 117.493 116.834 131.963 116.823 132.144C112.723 129.791 110.211 129.594 108.429 134.267L105.021 130.337Z" fill="#010101" fill-opacity="0.886275"/>
<path d="M131.139 85.7661C132.976 83.6681 133.166 82.9201 135.705 82.0551L138.204 83.649C136.069 95.064 131.956 106.186 124.957 115.579C122.332 113.216 122.284 110.537 121.011 106.581C119.789 99.9901 130.664 93.8901 131.139 85.7661Z" fill="#010101" fill-opacity="0.952941"/>
<path d="M302.315 50.003C308.945 48.814 313.175 46.182 319.275 43.198C319.195 46.089 318.655 59.685 317.935 61.552C315.015 61.649 314.615 62.041 311.815 62.959C311.415 61.139 310.995 59.321 310.575 57.507C309.045 50.726 308.395 51.434 302.315 50.003Z" fill="#010101" fill-opacity="0.866667"/>
<path d="M300.155 52.0141L302.315 50.0031C308.395 51.4341 309.045 50.7261 310.575 57.5071C310.995 59.3211 311.415 61.139 311.815 62.959C307.885 65.215 307.195 65.5461 302.805 66.6141C303.995 62.2001 301.615 56.3771 300.155 52.0141Z" fill="#010101" fill-opacity="0.85098"/>
<path d="M317.215 93.848C317.955 92.535 323.385 90.864 325.955 89.572C326.465 95.625 328.285 104.122 324.635 108.441C319.485 105.882 320.975 97.94 317.215 93.848Z" fill="#010101" fill-opacity="0.784314"/>
<path d="M92.4681 84.6941L97.0501 84.912C93.8141 88.215 92.9221 88.6381 91.8761 92.9171C92.4071 96.4801 93.2181 98.0481 96.5391 99.7051C95.4781 102.25 94.0131 102.196 91.8331 102.356C86.7641 99.1621 85.1321 93.7001 86.8641 88.1251C90.1251 84.8671 88.2711 85.8741 92.4681 84.6941Z" fill="#010101" fill-opacity="0.85098"/>
<path d="M326.495 206.633C327.865 208.04 330.175 210.577 331.615 211.721C331.205 215.674 330.975 219.236 328.425 222.291C325.745 220.891 325.055 220.774 323.025 218.506C325.305 213.328 322.305 212.927 326.495 206.633Z" fill="#010101" fill-opacity="0.882353"/>
</svg>
